<svg id="Слой_1" data-name="Слой 1" xmlns="http://www.w3.org/2000/svg" viewBox="0 0 340 340"><defs><style>.cls-1{fill:#fff;}</style></defs><rect width="340" height="340" rx="71.62"/><path class="cls-1" d="M49.74,205.46a86.54,86.54,0,0,0,39.88,9.95c22.74,0,36-10.63,36-26,0-14.25-9.2-22.39-32.46-30.31-28.11-8.83-45.49-21.72-45.49-43.22,0-23.75,22.24-41.4,55.72-41.4,17.63,0,30.41,3.62,38.08,7.47L135.37,98a75.74,75.74,0,0,0-32.72-7.24c-23.51,0-32.46,12.45-32.46,22.85,0,14.26,10.48,21.27,34.25,29.41,29.14,10,44,22.4,44,44.8,0,23.53-19.68,43.89-60.32,43.89-16.61,0-34.76-4.3-44-9.73Z" transform="translate(-0.08 -0.08)"/><path class="cls-1" d="M216.64,229.44,160.41,77h24l26.83,75.11c7.42,20.59,13.81,39.14,18.41,57h.51c4.85-17.65,12-36.88,19.68-56.79L279,77h23.77L241.18,229.44Z" transform="translate(-0.08 -0.08)"/><rect class="cls-1" x="25.92" y="256.92" width="288" height="15" rx="7.5"/></svg>